<svg id="Layer_1" data-name="Layer 1" xmlns="http://www.w3.org/2000/svg" viewBox="0 0 776.04 529.9"><defs><style>.cls-1{fill:#fff;}</style></defs><path class="cls-1" d="M608.56,460.17H863.93c17,0,31.42,13.44,31.73,30.49a31.06,31.06,0,0,1-31.07,31.67h-256a.05.05,0,0,0,0,0v180a.05.05,0,0,0,0,.05H896a31.08,31.08,0,0,1,31.08,31.08v.3A31.12,31.12,0,0,1,895.93,765H560.24L382,764.6c-.05,0-.06-.08,0-.1,6.9-1.93,13.72-4.18,20.51-6.76,31.09-11.79,59.16-28.58,82.86-52.51,23.87-24.12,41-52.68,53.39-84.37,15.06-38.64,21.15-78.93,21.51-120.34h0c-.57-10.64-.92-21.28-1.72-31.89-2.4-31.75-9.09-62.53-21-92-29.38-72.84-81.38-120-155.45-141.46a0,0,0,0,1,0-.09l190.24.35H883.16c17.09,0,31.53,13.45,31.91,30.54a31.22,31.22,0,0,1-31.24,31.95H608.56a.06.06,0,0,0,0,.05" transform="translate(-151.02 -235.05)"/><path class="cls-1" d="M448.29,543.49c-5,28.7-15.43,55.24-35.65,77.64-21.79,24.13-48.89,39.44-81.63,44.94-1.49.26-3,.49-4.51.71-28.15,3.9-55.8,2.14-82.22-8.37-36.21-14.39-61.76-39.32-77.56-73.29-8.38-18-12.68-37-14.32-56.62-.69-8.21-.93-16.46-1.38-24.69.48-21.44,2.22-42.72,7.28-63.66,5.17-21.37,13.22-41.58,28.11-58.66C203.5,361.89,225,348,250.17,339.43a159.61,159.61,0,0,1,49.85-8.1,167,167,0,0,1,31,2.42,143.72,143.72,0,0,1,56.82,23.16c23.46,16,39.27,37.54,49.64,62.92,8.33,20.41,12.44,41.65,13.79,63.43A257.45,257.45,0,0,1,448.29,543.49Z" transform="translate(-151.02 -235.05)"/></svg>